inDegrees=yes
name=IK-live
DataType=double
version=3
OpenSimVersion=4.1
endheader
time	pelvis_tilt	pelvis_list	pelvis_rotation	pelvis_tx	pelvis_ty	pelvis_tz	hip_flexion_r	hip_adduction_r	hip_rotation_r	knee_angle_r	ankle_angle_r	subtalar_angle_r	mtp_angle_r	hip_flexion_l	hip_adduction_l	hip_rotation_l	knee_angle_l	ankle_angle_l	subtalar_angle_l	mtp_angle_l	lumbar_extension	lumbar_bending	lumbar_rotation	neck_flex	neck_latbend	neck_rot	arm_flex_r	arm_add_r	arm_rot_r	elbow_flex_r	pro_sup_r	wrist_flex_r	wrist_dev_r	arm_flex_l	arm_add_l	arm_rot_l	elbow_flex_l	pro_sup_l	wrist_flex_l	wrist_dev_l
25.4361036	-112.5704524680083	-103.3618083857998	-128.1579367687834	0.2341366603171506	0.04326292228651554	-1.326684523481465	-22.57117169827992	-1.591976316804377	-3.241458145969817	5.899560354604904	2.451982624139334	1.987972377786656	0	-24.74788768789517	-3.395140484746916	-11.58000132048591	9.793848132074926	-0.4439473045988533	4.250290820099795	0	-21.37711699760957	1.659277491615732	3.206407148933037	0	0	0	1.277823469711516	-15.17432336092944	32.66660400630327	12.94551361533451	26.48260884542551	0	0.7371589411620473	6.324219444345462	-13.25165378806728	42.94096852429728	12.81647999049764	34.28327645640307	0	0.7371589411620473
25.8969181	-32.30579258624608	-89.97129319494854	-42.31246027528259	0.2341366603171506	0.04326292228651554	-1.326684523481465	-22.57117169827992	-1.591976316804377	-3.241458145969817	5.899560354604904	2.451982624139334	1.987972377786656	0	-24.74788768789517	-3.395140484746916	-11.58000132048591	9.793848132074926	-0.4439473045988533	4.250290820099795	0	-21.37711699760957	1.659277491615732	3.206407148933037	0	0	0	0.7799156009461102	-15.17650375864732	33.3117421583322	7.006040090943151	24.87334934502412	0	0.01205559429389992	5.870918014482492	-13.22977973680963	43.8993897718311	6.82072568204251	33.47969451519545	0	0.01205559429389992
26.1596736	-122.8744741950906	-100.7052707768973	-130.9994650377689	0.2341366603171506	0.04326292228651554	-1.326684523481465	-22.57117169827992	-1.591976316804377	-3.241458145969817	5.899560354604904	2.451982624139334	1.987972377786656	0	-24.74788768789517	-3.395140484746916	-11.58000132048591	9.793848132074926	-0.4439473045988533	4.250290820099795	0	-21.37711699760957	1.659277491615732	3.206407148933037	0	0	0	0.866084492872629	-15.17612607772226	33.19957565566427	8.403614812142518	25.16118258772232	0	0.1433188945930157	5.949349318665338	-13.23356869510709	43.73228112106391	8.250828529712225	33.62167607369249	0	0.1433188945930157
26.3950712	-122.3784851589976	-100.6521378717874	-130.4730202874176	0.2341366603171506	0.04326292228651554	-1.326684523481465	-22.57117169827992	-1.591976316804377	-3.241458145969817	5.899560354604904	2.451982624139334	1.987972377786656	0	-24.74788768789517	-3.395140484746916	-11.58000132048591	9.793848132074926	-0.4439473045988533	4.250290820099795	0	-21.37711699760957	1.659277491615732	3.206407148933037	0	0	0	0.8531542258786228	-15.17618824928523	33.22342664305754	7.857942317783887	25.06361093775461	0	0.09670714090580355	5.937895037125994	-13.23294480679846	43.77225864532695	7.693434008227911	33.57791017933395	0	0.09670714090580355
26.6484444	-43.71386244285394	-57.93700833042816	-33.72679137916496	0.2341366603171506	0.04326292228651554	-1.326684523481465	-22.57117169827992	-1.591976316804377	-3.241458145969817	5.899560354604904	2.451982624139334	1.987972377786656	0	-24.74788768789517	-3.395140484746916	-11.58000132048591	9.793848132074926	-0.4439473045988533	4.250290820099795	0	-21.37711699760957	1.659277491615732	3.206407148933037	0	0	0	0.7840833289583926	-15.1764854789805	33.3063006109595	7.082858291144276	24.88752993830373	0	0.01855902060484934	5.874710899343317	-13.22996312183487	43.89126911953785	6.899704697993557	33.48664500523877	0	0.01855902060484934
26.935198	-52.39168948791497	-25.76531091295476	-19.99973353976399	0.2341366603171506	0.04326292228651554	-1.326684523481465	-22.57117169827992	-1.591976316804377	-3.241458145969817	5.899560354604904	2.451982624139334	1.987972377786656	0	-24.74788768789517	-3.395140484746916	-11.58000132048591	9.793848132074926	-0.4439473045988533	4.250290820099795	0	-21.37711699760957	1.659277491615732	3.206407148933037	0	0	0	0.7849955786980142	-15.17648152080887	33.3051416276212	7.094758913937337	24.89033760449335	0	0.01980556317684965	5.875542174671758	-13.23000283042296	43.88955387959059	6.911807519531172	33.48804841022739	0	0.01980556317684965
